Using device: cuda
Found 1065 pkl snapshots.
Setting up PyTorch plugin "bias_act_plugin"... Done.
Setting up PyTorch plugin "upfirdn2d_plugin"... Done.
Starting ffmpeg to write training_interpolation.webm...
[1/1065] Processing /home/s25vargason1/richard/512_basic_training/stylegan2-ada-pytorch/results/00008-post-impressionist-auto1-ada-resumecustom/network-snapshot-000000.pkl...
ffmpeg version 6.1.1 Copyright (c) 2000-2023 the FFmpeg developers
  built with gcc 11.2.0 (Anaconda gcc)
  configuration: --prefix=/croot/ffmpeg_1743153284778/_h_env_placehold_placehold_placehold_placehold_placehold_placehold_placehold_placehold_placehold_placehold_placehold_placehold_placehold_placehold_placehold_placehold_placehold_placehold_placehold_placehold_placehold_placehold_ --cc=/croot/ffmpeg_1743153284778/_build_env/bin/x86_64-conda-linux-gnu-cc --ar=/croot/ffmpeg_1743153284778/_build_env/bin/x86_64-conda-linux-gnu-ar --nm=/croot/ffmpeg_1743153284778/_build_env/bin/x86_64-conda-linux-gnu-nm --ranlib=/croot/ffmpeg_1743153284778/_build_env/bin/x86_64-conda-linux-gnu-ranlib --strip=/croot/ffmpeg_1743153284778/_build_env/bin/x86_64-conda-linux-gnu-strip --disable-doc --enable-swresample --enable-swscale --enable-openssl --enable-libxml2 --enable-libtheora --enable-demuxer=dash --enable-postproc --enable-hardcoded-tables --enable-libfreetype --enable-libharfbuzz --enable-libfontconfig --enable-libdav1d --enable-zlib --enable-libaom --enable-pic --enable-shared --disable-static --disable-gpl --enable-version3 --disable-sdl2 --enable-libopenh264 --enable-libopus --enable-libmp3lame --enable-libopenjpeg --enable-libvorbis --enable-pthreads --enable-libtesseract --enable-libvpx
  libavutil      58. 29.100 / 58. 29.100
  libavcodec     60. 31.102 / 60. 31.102
  libavformat    60. 16.100 / 60. 16.100
  libavdevice    60.  3.100 / 60.  3.100
  libavfilter     9. 12.100 /  9. 12.100
  libswscale      7.  5.100 /  7.  5.100
  libswresample   4. 12.100 /  4. 12.100
[6/1065] Processing /home/s25vargason1/richard/512_basic_training/stylegan2-ada-pytorch/results/00008-post-impressionist-auto1-ada-resumecustom/network-snapshot-000050.pkl...
Input #0, rawvideo, from 'fd:':
  Duration: N/A, start: 0.000000, bitrate: 62914 kb/s
  Stream #0:0: Video: rawvideo (RGB[24] / 0x18424752), rgb24, 512x512, 62914 kb/s, 10 tbr, 10 tbn
Stream mapping:
  Stream #0:0 -> #0:0 (rawvideo (native) -> vp8 (libvpx))
[libvpx @ 0x1460f80] v1.13.1
Output #0, webm, to 'training_interpolation.webm':
  Metadata:
    encoder         : Lavf60.16.100
  Stream #0:0: Video: vp8, yuv420p(tv, progressive), 512x512, q=2-31, 5000 kb/s, 10 fps, 1k tbn
    Metadata:
      encoder         : Lavc60.31.102 libvpx
    Side data:
      cpb: bitrate max/min/avg: 0/0/0 buffer size: 0 vbv_delay: N/A
frame=    1 fps=0.0 q=4.0 size=       0kB time=00:00:00.00 bitrate=N/A speed=N/A    [11/1065] Processing /home/s25vargason1/richard/512_basic_training/stylegan2-ada-pytorch/results/00008-post-impressionist-auto1-ada-resumecustom/network-snapshot-000100.pkl...
[16/1065] Processing /home/s25vargason1/richard/512_basic_training/stylegan2-ada-pytorch/results/00008-post-impressionist-auto1-ada-resumecustom/network-snapshot-000150.pkl...
frame=    2 fps=1.1 q=14.0 size=       0kB time=00:00:00.20 bitrate=  18.9kbits/s speed=0.106x    [21/1065] Processing /home/s25vargason1/richard/512_basic_training/stylegan2-ada-pytorch/results/00008-post-impressionist-auto1-ada-resumecustom/network-snapshot-000200.pkl...
frame=    4 fps=1.1 q=14.0 size=       0kB time=00:00:00.30 bitrate=  12.6kbits/s speed=0.0813x    [26/1065] Processing /home/s25vargason1/richard/512_basic_training/stylegan2-ada-pytorch/results/00008-post-impressionist-auto1-ada-resumecustom/network-snapshot-000250.pkl...
frame=    5 fps=1.0 q=14.0 size=       0kB time=00:00:00.40 bitrate=   9.4kbits/s speed=0.0767x    [31/1065] Processing /home/s25vargason1/richard/512_basic_training/stylegan2-ada-pytorch/results/00008-post-impressionist-auto1-ada-resumecustom/network-snapshot-000300.pkl...
frame=    6 fps=1.0 q=14.0 size=       0kB time=00:00:00.50 bitrate=   7.6kbits/s speed=0.0825x    [36/1065] Processing /home/s25vargason1/richard/512_basic_training/stylegan2-ada-pytorch/results/00008-post-impressionist-auto1-ada-resumecustom/network-snapshot-000350.pkl...
frame=    7 fps=0.9 q=14.0 size=       0kB time=00:00:00.60 bitrate=   6.3kbits/s speed=0.0805x    [41/1065] Processing /home/s25vargason1/richard/512_basic_training/stylegan2-ada-pytorch/results/00008-post-impressionist-auto1-ada-resumecustom/network-snapshot-000400.pkl...
frame=    7 fps=0.8 q=14.0 size=       0kB time=00:00:00.70 bitrate=   5.4kbits/s speed=0.0768x    [46/1065] Processing /home/s25vargason1/richard/512_basic_training/stylegan2-ada-pytorch/results/00008-post-impressionist-auto1-ada-resumecustom/network-snapshot-000450.pkl...
frame=    9 fps=0.9 q=14.0 size=       0kB time=00:00:00.80 bitrate=   4.7kbits/s speed=0.0806x    [51/1065] Processing /home/s25vargason1/richard/512_basic_training/stylegan2-ada-pytorch/results/00008-post-impressionist-auto1-ada-resumecustom/network-snapshot-000500.pkl...
frame=   10 fps=0.9 q=14.0 size=       0kB time=00:00:00.90 bitrate=   4.2kbits/s speed=0.0793x    [56/1065] Processing /home/s25vargason1/richard/512_basic_training/stylegan2-ada-pytorch/results/00008-post-impressionist-auto1-ada-resumecustom/network-snapshot-000550.pkl...
frame=   11 fps=0.9 q=14.0 size=       0kB time=00:00:01.00 bitrate=   3.8kbits/s speed=0.0816x    [61/1065] Processing /home/s25vargason1/richard/512_basic_training/stylegan2-ada-pytorch/results/00008-post-impressionist-auto1-ada-resumecustom/network-snapshot-000600.pkl...
frame=   12 fps=0.9 q=14.0 size=       0kB time=00:00:01.10 bitrate=   3.4kbits/s speed=0.0823x    [66/1065] Processing /home/s25vargason1/richard/512_basic_training/stylegan2-ada-pytorch/results/00008-post-impressionist-auto1-ada-resumecustom/network-snapshot-000650.pkl...
frame=   13 fps=0.9 q=14.0 size=       0kB time=00:00:01.20 bitrate=   3.1kbits/s speed=0.0821x    [71/1065] Processing /home/s25vargason1/richard/512_basic_training/stylegan2-ada-pytorch/results/00008-post-impressionist-auto1-ada-resumecustom/network-snapshot-000700.pkl...
frame=   14 fps=0.9 q=14.0 size=       0kB time=00:00:01.30 bitrate=   2.9kbits/s speed=0.0821x    [76/1065] Processing /home/s25vargason1/richard/512_basic_training/stylegan2-ada-pytorch/results/00008-post-impressionist-auto1-ada-resumecustom/network-snapshot-000750.pkl...
frame=   15 fps=0.9 q=14.0 size=       0kB time=00:00:01.40 bitrate=   2.7kbits/s speed=0.0831x    [81/1065] Processing /home/s25vargason1/richard/512_basic_training/stylegan2-ada-pytorch/results/00008-post-impressionist-auto1-ada-resumecustom/network-snapshot-000800.pkl...
frame=   16 fps=0.9 q=14.0 size=       0kB time=00:00:01.50 bitrate=   2.5kbits/s speed=0.0815x    [86/1065] Processing /home/s25vargason1/richard/512_basic_training/stylegan2-ada-pytorch/results/00008-post-impressionist-auto1-ada-resumecustom/network-snapshot-000850.pkl...
frame=   17 fps=0.9 q=14.0 size=       0kB time=00:00:01.60 bitrate=   2.4kbits/s speed=0.0821x    [91/1065] Processing /home/s25vargason1/richard/512_basic_training/stylegan2-ada-pytorch/results/00008-post-impressionist-auto1-ada-resumecustom/network-snapshot-000900.pkl...
frame=   17 fps=0.8 q=14.0 size=       0kB time=00:00:01.70 bitrate=   2.2kbits/s speed=0.0817x    [96/1065] Processing /home/s25vargason1/richard/512_basic_training/stylegan2-ada-pytorch/results/00008-post-impressionist-auto1-ada-resumecustom/network-snapshot-000950.pkl...
frame=   19 fps=0.8 q=14.0 size=       0kB time=00:00:01.80 bitrate=   2.1kbits/s speed=0.08x    [101/1065] Processing /home/s25vargason1/richard/512_basic_training/stylegan2-ada-pytorch/results/00008-post-impressionist-auto1-ada-resumecustom/network-snapshot-001000.pkl...
frame=   20 fps=0.9 q=14.0 size=       0kB time=00:00:01.90 bitrate=   2.0kbits/s speed=0.0823x    [106/1065] Processing /home/s25vargason1/richard/512_basic_training/stylegan2-ada-pytorch/results/00008-post-impressionist-auto1-ada-resumecustom/network-snapshot-001050.pkl...
frame=   21 fps=0.9 q=14.0 size=       0kB time=00:00:02.00 bitrate=   1.9kbits/s speed=0.0824x    [111/1065] Processing /home/s25vargason1/richard/512_basic_training/stylegan2-ada-pytorch/results/00008-post-impressionist-auto1-ada-resumecustom/network-snapshot-001100.pkl...
frame=   22 fps=0.9 q=14.0 size=       0kB time=00:00:02.10 bitrate=   1.8kbits/s speed=0.0819x    [116/1065] Processing /home/s25vargason1/richard/512_basic_training/stylegan2-ada-pytorch/results/00008-post-impressionist-auto1-ada-resumecustom/network-snapshot-001150.pkl...
frame=   23 fps=0.9 q=14.0 size=       0kB time=00:00:02.20 bitrate=   1.7kbits/s speed=0.0826x    [121/1065] Processing /home/s25vargason1/richard/512_basic_training/stylegan2-ada-pytorch/results/00008-post-impressionist-auto1-ada-resumecustom/network-snapshot-001200.pkl...
frame=   24 fps=0.9 q=14.0 size=       0kB time=00:00:02.30 bitrate=   1.6kbits/s speed=0.083x    [126/1065] Processing /home/s25vargason1/richard/512_basic_training/stylegan2-ada-pytorch/results/00008-post-impressionist-auto1-ada-resumecustom/network-snapshot-001250.pkl...
frame=   25 fps=0.9 q=14.0 size=       0kB time=00:00:02.40 bitrate=   1.6kbits/s speed=0.0828x    [131/1065] Processing /home/s25vargason1/richard/512_basic_training/stylegan2-ada-pytorch/results/00008-post-impressionist-auto1-ada-resumecustom/network-snapshot-001300.pkl...
frame=   26 fps=0.9 q=14.0 size=       0kB time=00:00:02.50 bitrate=   1.5kbits/s speed=0.084x    [136/1065] Processing /home/s25vargason1/richard/512_basic_training/stylegan2-ada-pytorch/results/00008-post-impressionist-auto1-ada-resumecustom/network-snapshot-001350.pkl...
frame=   27 fps=0.9 q=14.0 size=       0kB time=00:00:02.60 bitrate=   1.5kbits/s speed=0.0843x    [141/1065] Processing /home/s25vargason1/richard/512_basic_training/stylegan2-ada-pytorch/results/00008-post-impressionist-auto1-ada-resumecustom/network-snapshot-001400.pkl...
frame=   28 fps=0.9 q=14.0 size=       0kB time=00:00:02.70 bitrate=   1.4kbits/s speed=0.0847x    [146/1065] Processing /home/s25vargason1/richard/512_basic_training/stylegan2-ada-pytorch/results/00008-post-impressionist-auto1-ada-resumecustom/network-snapshot-001450.pkl...
frame=   29 fps=0.7 q=14.0 size=       0kB time=00:00:02.80 bitrate=   1.3kbits/s speed=0.0699x    [151/1065] Processing /home/s25vargason1/richard/512_basic_training/stylegan2-ada-pytorch/results/00008-post-impressionist-auto1-ada-resumecustom/network-snapshot-001500.pkl...
frame=   30 fps=0.7 q=14.0 size=       0kB time=00:00:02.90 bitrate=   1.3kbits/s speed=0.0699x    [156/1065] Processing /home/s25vargason1/richard/512_basic_training/stylegan2-ada-pytorch/results/00008-post-impressionist-auto1-ada-resumecustom/network-snapshot-001550.pkl...
frame=   30 fps=0.7 q=14.0 size=       0kB time=00:00:03.00 bitrate=   1.3kbits/s speed=0.067x    [161/1065] Processing /home/s25vargason1/richard/512_basic_training/stylegan2-ada-pytorch/results/00008-post-impressionist-auto1-ada-resumecustom/network-snapshot-001600.pkl...
frame=   32 fps=0.7 q=14.0 size=       0kB time=00:00:03.10 bitrate=   1.2kbits/s speed=0.0638x    [166/1065] Processing /home/s25vargason1/richard/512_basic_training/stylegan2-ada-pytorch/results/00008-post-impressionist-auto1-ada-resumecustom/network-snapshot-001650.pkl...
frame=   33 fps=0.6 q=14.0 size=       0kB time=00:00:03.20 bitrate=   1.2kbits/s speed=0.0614x    [171/1065] Processing /home/s25vargason1/richard/512_basic_training/stylegan2-ada-pytorch/results/00008-post-impressionist-auto1-ada-resumecustom/network-snapshot-001700.pkl...
frame=   34 fps=0.6 q=14.0 size=       0kB time=00:00:03.30 bitrate=   1.1kbits/s speed=0.0614x    [176/1065] Processing /home/s25vargason1/richard/512_basic_training/stylegan2-ada-pytorch/results/00008-post-impressionist-auto1-ada-resumecustom/network-snapshot-001750.pkl...
frame=   35 fps=0.6 q=14.0 size=       0kB time=00:00:03.40 bitrate=   1.1kbits/s speed=0.0618x    [181/1065] Processing /home/s25vargason1/richard/512_basic_training/stylegan2-ada-pytorch/results/00008-post-impressionist-auto1-ada-resumecustom/network-snapshot-001800.pkl...
frame=   36 fps=0.6 q=14.0 size=       0kB time=00:00:03.50 bitrate=   1.1kbits/s speed=0.0568x    [186/1065] Processing /home/s25vargason1/richard/512_basic_training/stylegan2-ada-pytorch/results/00008-post-impressionist-auto1-ada-resumecustom/network-snapshot-001850.pkl...
frame=   37 fps=0.6 q=14.0 size=       0kB time=00:00:03.60 bitrate=   1.0kbits/s speed=0.0563x    [191/1065] Processing /home/s25vargason1/richard/512_basic_training/stylegan2-ada-pytorch/results/00008-post-impressionist-auto1-ada-resumecustom/network-snapshot-001900.pkl...
frame=   38 fps=0.6 q=14.0 size=       0kB time=00:00:03.70 bitrate=   1.0kbits/s speed=0.0561x    [196/1065] Processing /home/s25vargason1/richard/512_basic_training/stylegan2-ada-pytorch/results/00008-post-impressionist-auto1-ada-resumecustom/network-snapshot-001950.pkl...
frame=   39 fps=0.5 q=14.0 size=       0kB time=00:00:03.80 bitrate=   1.0kbits/s speed=0.0533x    [201/1065] Processing /home/s25vargason1/richard/512_basic_training/stylegan2-ada-pytorch/results/00008-post-impressionist-auto1-ada-resumecustom/network-snapshot-002000.pkl...
frame=   40 fps=0.5 q=14.0 size=       0kB time=00:00:03.90 bitrate=   1.0kbits/s speed=0.0534x    [206/1065] Processing /home/s25vargason1/richard/512_basic_training/stylegan2-ada-pytorch/results/00008-post-impressionist-auto1-ada-resumecustom/network-snapshot-002050.pkl...
frame=   41 fps=0.5 q=14.0 size=       0kB time=00:00:04.00 bitrate=   0.9kbits/s speed=0.0533x    [211/1065] Processing /home/s25vargason1/richard/512_basic_training/stylegan2-ada-pytorch/results/00008-post-impressionist-auto1-ada-resumecustom/network-snapshot-002100.pkl...
frame=   42 fps=0.5 q=14.0 size=       0kB time=00:00:04.10 bitrate=   0.9kbits/s speed=0.0507x    [216/1065] Processing /home/s25vargason1/richard/512_basic_training/stylegan2-ada-pytorch/results/00008-post-impressionist-auto1-ada-resumecustom/network-snapshot-002150.pkl...
frame=   43 fps=0.5 q=14.0 size=       0kB time=00:00:04.20 bitrate=   0.9kbits/s speed=0.0507x    [221/1065] Processing /home/s25vargason1/richard/512_basic_training/stylegan2-ada-pytorch/results/00008-post-impressionist-auto1-ada-resumecustom/network-snapshot-002200.pkl...
frame=   44 fps=0.5 q=14.0 size=       0kB time=00:00:04.30 bitrate=   0.9kbits/s speed=0.0508x    [226/1065] Processing /home/s25vargason1/richard/512_basic_training/stylegan2-ada-pytorch/results/00008-post-impressionist-auto1-ada-resumecustom/network-snapshot-002250.pkl...
frame=   45 fps=0.5 q=14.0 size=       0kB time=00:00:04.40 bitrate=   0.9kbits/s speed=0.0475x    [231/1065] Processing /home/s25vargason1/richard/512_basic_training/stylegan2-ada-pytorch/results/00008-post-impressionist-auto1-ada-resumecustom/network-snapshot-002300.pkl...
frame=   46 fps=0.5 q=14.0 size=       0kB time=00:00:04.50 bitrate=   0.8kbits/s speed=0.0478x    [236/1065] Processing /home/s25vargason1/richard/512_basic_training/stylegan2-ada-pytorch/results/00008-post-impressionist-auto1-ada-resumecustom/network-snapshot-002350.pkl...
frame=   46 fps=0.5 q=14.0 size=       0kB time=00:00:04.60 bitrate=   0.8kbits/s speed=0.048x    [241/1065] Processing /home/s25vargason1/richard/512_basic_training/stylegan2-ada-pytorch/results/00008-post-impressionist-auto1-ada-resumecustom/network-snapshot-002400.pkl...
frame=   48 fps=0.5 q=14.0 size=       0kB time=00:00:04.70 bitrate=   0.8kbits/s speed=0.0481x    [246/1065] Processing /home/s25vargason1/richard/512_basic_training/stylegan2-ada-pytorch/results/00008-post-impressionist-auto1-ada-resumecustom/network-snapshot-002450.pkl...
frame=   49 fps=0.5 q=14.0 size=       0kB time=00:00:04.80 bitrate=   0.8kbits/s speed=0.0483x    [251/1065] Processing /home/s25vargason1/richard/512_basic_training/stylegan2-ada-pytorch/results/00008-post-impressionist-auto1-ada-resumecustom/network-snapshot-002500.pkl...
frame=   50 fps=0.5 q=14.0 size=       0kB time=00:00:04.90 bitrate=   0.8kbits/s speed=0.0484x    [256/1065] Processing /home/s25vargason1/richard/512_basic_training/stylegan2-ada-pytorch/results/00008-post-impressionist-auto1-ada-resumecustom/network-snapshot-002550.pkl...
frame=   51 fps=0.5 q=14.0 size=       0kB time=00:00:05.00 bitrate=   0.8kbits/s speed=0.0484x    [261/1065] Processing /home/s25vargason1/richard/512_basic_training/stylegan2-ada-pytorch/results/00008-post-impressionist-auto1-ada-resumecustom/network-snapshot-002600.pkl...
frame=   52 fps=0.5 q=14.0 size=       0kB time=00:00:05.10 bitrate=   0.7kbits/s speed=0.0472x    [266/1065] Processing /home/s25vargason1/richard/512_basic_training/stylegan2-ada-pytorch/results/00008-post-impressionist-auto1-ada-resumecustom/network-snapshot-002650.pkl...
frame=   53 fps=0.5 q=14.0 size=    2304kB time=00:00:05.20 bitrate=3629.7kbits/s speed=0.0475x    [271/1065] Processing /home/s25vargason1/richard/512_basic_training/stylegan2-ada-pytorch/results/00008-post-impressionist-auto1-ada-resumecustom/network-snapshot-002700.pkl...
frame=   54 fps=0.5 q=14.0 size=    2304kB time=00:00:05.30 bitrate=3561.2kbits/s speed=0.0477x    [276/1065] Processing /home/s25vargason1/richard/512_basic_training/stylegan2-ada-pytorch/results/00008-post-impressionist-auto1-ada-resumecustom/network-snapshot-002750.pkl...
frame=   55 fps=0.5 q=14.0 size=    2304kB time=00:00:05.40 bitrate=3495.3kbits/s speed=0.048x    [281/1065] Processing /home/s25vargason1/richard/512_basic_training/stylegan2-ada-pytorch/results/00008-post-impressionist-auto1-ada-resumecustom/network-snapshot-002800.pkl...
frame=   56 fps=0.5 q=14.0 size=    2304kB time=00:00:05.50 bitrate=3431.7kbits/s speed=0.048x    [286/1065] Processing /home/s25vargason1/richard/512_basic_training/stylegan2-ada-pytorch/results/00008-post-impressionist-auto1-ada-resumecustom/network-snapshot-002850.pkl...
frame=   57 fps=0.5 q=14.0 size=    2304kB time=00:00:05.60 bitrate=3370.4kbits/s speed=0.0483x    [291/1065] Processing /home/s25vargason1/richard/512_basic_training/stylegan2-ada-pytorch/results/00008-post-impressionist-auto1-ada-resumecustom/network-snapshot-002900.pkl...
frame=   58 fps=0.5 q=14.0 size=    2304kB time=00:00:05.70 bitrate=3311.3kbits/s speed=0.0485x    [296/1065] Processing /home/s25vargason1/richard/512_basic_training/stylegan2-ada-pytorch/results/00008-post-impressionist-auto1-ada-resumecustom/network-snapshot-002950.pkl...
frame=   59 fps=0.5 q=14.0 size=    2304kB time=00:00:05.80 bitrate=3254.2kbits/s speed=0.0488x    [301/1065] Processing /home/s25vargason1/richard/512_basic_training/stylegan2-ada-pytorch/results/00008-post-impressionist-auto1-ada-resumecustom/network-snapshot-003000.pkl...
frame=   60 fps=0.5 q=14.0 size=    2304kB time=00:00:05.90 bitrate=3199.0kbits/s speed=0.0491x    [306/1065] Processing /home/s25vargason1/richard/512_basic_training/stylegan2-ada-pytorch/results/00008-post-impressionist-auto1-ada-resumecustom/network-snapshot-003050.pkl...
frame=   61 fps=0.5 q=14.0 size=    2304kB time=00:00:06.00 bitrate=3145.7kbits/s speed=0.0495x    [311/1065] Processing /home/s25vargason1/richard/512_basic_training/stylegan2-ada-pytorch/results/00008-post-impressionist-auto1-ada-resumecustom/network-snapshot-003100.pkl...
frame=   62 fps=0.5 q=14.0 size=    2304kB time=00:00:06.10 bitrate=3094.2kbits/s speed=0.0498x    [316/1065] Processing /home/s25vargason1/richard/512_basic_training/stylegan2-ada-pytorch/results/00008-post-impressionist-auto1-ada-resumecustom/network-snapshot-003150.pkl...
frame=   63 fps=0.5 q=14.0 size=    2304kB time=00:00:06.20 bitrate=3044.3kbits/s speed=0.0495x    [321/1065] Processing /home/s25vargason1/richard/512_basic_training/stylegan2-ada-pytorch/results/00008-post-impressionist-auto1-ada-resumecustom/network-snapshot-003200.pkl...
frame=   64 fps=0.5 q=14.0 size=    2304kB time=00:00:06.30 bitrate=2995.9kbits/s speed=0.0476x    [326/1065] Processing /home/s25vargason1/richard/512_basic_training/stylegan2-ada-pytorch/results/00008-post-impressionist-auto1-ada-resumecustom/network-snapshot-003250.pkl...
frame=   65 fps=0.5 q=14.0 size=    2304kB time=00:00:06.40 bitrate=2949.1kbits/s speed=0.0479x    [331/1065] Processing /home/s25vargason1/richard/512_basic_training/stylegan2-ada-pytorch/results/00008-post-impressionist-auto1-ada-resumecustom/network-snapshot-003300.pkl...
frame=   66 fps=0.5 q=14.0 size=    2304kB time=00:00:06.50 bitrate=2903.7kbits/s speed=0.0482x    [336/1065] Processing /home/s25vargason1/richard/512_basic_training/stylegan2-ada-pytorch/results/00008-post-impressionist-auto1-ada-resumecustom/network-snapshot-003350.pkl...
frame=   67 fps=0.5 q=14.0 size=    2304kB time=00:00:06.60 bitrate=2859.8kbits/s speed=0.0484x    [341/1065] Processing /home/s25vargason1/richard/512_basic_training/stylegan2-ada-pytorch/results/00008-post-impressionist-auto1-ada-resumecustom/network-snapshot-003400.pkl...
frame=   68 fps=0.5 q=14.0 size=    2304kB time=00:00:06.70 bitrate=2817.1kbits/s speed=0.0485x    [346/1065] Processing /home/s25vargason1/richard/512_basic_training/stylegan2-ada-pytorch/results/00008-post-impressionist-auto1-ada-resumecustom/network-snapshot-003450.pkl...
frame=   69 fps=0.5 q=14.0 size=    2304kB time=00:00:06.80 bitrate=2775.6kbits/s speed=0.0487x    [351/1065] Processing /home/s25vargason1/richard/512_basic_training/stylegan2-ada-pytorch/results/00008-post-impressionist-auto1-ada-resumecustom/network-snapshot-003500.pkl...
frame=   70 fps=0.5 q=14.0 size=    2304kB time=00:00:06.90 bitrate=2735.4kbits/s speed=0.0489x    [356/1065] Processing /home/s25vargason1/richard/512_basic_training/stylegan2-ada-pytorch/results/00008-post-impressionist-auto1-ada-resumecustom/network-snapshot-003550.pkl...
frame=   71 fps=0.5 q=14.0 size=    2304kB time=00:00:07.00 bitrate=2696.3kbits/s speed=0.0494x    [361/1065] Processing /home/s25vargason1/richard/512_basic_training/stylegan2-ada-pytorch/results/00008-post-impressionist-auto1-ada-resumecustom/network-snapshot-003600.pkl...
frame=   72 fps=0.5 q=14.0 size=    2304kB time=00:00:07.10 bitrate=2658.4kbits/s speed=0.0495x    [366/1065] Processing /home/s25vargason1/richard/512_basic_training/stylegan2-ada-pytorch/results/00008-post-impressionist-auto1-ada-resumecustom/network-snapshot-003650.pkl...
frame=   73 fps=0.5 q=14.0 size=    2304kB time=00:00:07.20 bitrate=2621.4kbits/s speed=0.0497x    [371/1065] Processing /home/s25vargason1/richard/512_basic_training/stylegan2-ada-pytorch/results/00008-post-impressionist-auto1-ada-resumecustom/network-snapshot-003700.pkl...
frame=   74 fps=0.5 q=14.0 size=    2304kB time=00:00:07.30 bitrate=2585.5kbits/s speed=0.0499x    [376/1065] Processing /home/s25vargason1/richard/512_basic_training/stylegan2-ada-pytorch/results/00008-post-impressionist-auto1-ada-resumecustom/network-snapshot-003750.pkl...
frame=   75 fps=0.5 q=14.0 size=    2304kB time=00:00:07.40 bitrate=2550.6kbits/s speed=0.05x    [381/1065] Processing /home/s25vargason1/richard/512_basic_training/stylegan2-ada-pytorch/results/00008-post-impressionist-auto1-ada-resumecustom/network-snapshot-003800.pkl...
frame=   76 fps=0.5 q=14.0 size=    2304kB time=00:00:07.50 bitrate=2516.6kbits/s speed=0.0502x    [386/1065] Processing /home/s25vargason1/richard/512_basic_training/stylegan2-ada-pytorch/results/00008-post-impressionist-auto1-ada-resumecustom/network-snapshot-003850.pkl...
frame=   77 fps=0.5 q=14.0 size=    2304kB time=00:00:07.60 bitrate=2483.5kbits/s speed=0.0504x    [391/1065] Processing /home/s25vargason1/richard/512_basic_training/stylegan2-ada-pytorch/results/00008-post-impressionist-auto1-ada-resumecustom/network-snapshot-003900.pkl...
frame=   78 fps=0.5 q=14.0 size=    2304kB time=00:00:07.70 bitrate=2451.2kbits/s speed=0.0506x    [396/1065] Processing /home/s25vargason1/richard/512_basic_training/stylegan2-ada-pytorch/results/00008-post-impressionist-auto1-ada-resumecustom/network-snapshot-003950.pkl...
frame=   79 fps=0.5 q=14.0 size=    2304kB time=00:00:07.80 bitrate=2419.8kbits/s speed=0.0509x    [401/1065] Processing /home/s25vargason1/richard/512_basic_training/stylegan2-ada-pytorch/results/00008-post-impressionist-auto1-ada-resumecustom/network-snapshot-004000.pkl...
frame=   80 fps=0.5 q=14.0 size=    2304kB time=00:00:07.90 bitrate=2389.2kbits/s speed=0.0487x    [406/1065] Processing /home/s25vargason1/richard/512_basic_training/stylegan2-ada-pytorch/results/00008-post-impressionist-auto1-ada-resumecustom/network-snapshot-004050.pkl...
frame=   81 fps=0.5 q=14.0 size=    2304kB time=00:00:08.00 bitrate=2359.3kbits/s speed=0.0488x    [411/1065] Processing /home/s25vargason1/richard/512_basic_training/stylegan2-ada-pytorch/results/00008-post-impressionist-auto1-ada-resumecustom/network-snapshot-004100.pkl...
frame=   82 fps=0.5 q=14.0 size=    2304kB time=00:00:08.10 bitrate=2330.2kbits/s speed=0.0488x    [416/1065] Processing /home/s25vargason1/richard/512_basic_training/stylegan2-ada-pytorch/results/00008-post-impressionist-auto1-ada-resumecustom/network-snapshot-004150.pkl...
frame=   83 fps=0.5 q=14.0 size=    2304kB time=00:00:08.20 bitrate=2301.8kbits/s speed=0.0491x    [421/1065] Processing /home/s25vargason1/richard/512_basic_training/stylegan2-ada-pytorch/results/00008-post-impressionist-auto1-ada-resumecustom/network-snapshot-004200.pkl...
frame=   84 fps=0.5 q=14.0 size=    2304kB time=00:00:08.30 bitrate=2274.0kbits/s speed=0.0493x    [426/1065] Processing /home/s25vargason1/richard/512_basic_training/stylegan2-ada-pytorch/results/00008-post-impressionist-auto1-ada-resumecustom/network-snapshot-004250.pkl...
frame=   85 fps=0.5 q=14.0 size=    2304kB time=00:00:08.40 bitrate=2246.9kbits/s speed=0.0496x    [431/1065] Processing /home/s25vargason1/richard/512_basic_training/stylegan2-ada-pytorch/results/00008-post-impressionist-auto1-ada-resumecustom/network-snapshot-004300.pkl...
frame=   86 fps=0.5 q=14.0 size=    2304kB time=00:00:08.50 bitrate=2220.5kbits/s speed=0.0498x    [436/1065] Processing /home/s25vargason1/richard/512_basic_training/stylegan2-ada-pytorch/results/00008-post-impressionist-auto1-ada-resumecustom/network-snapshot-004350.pkl...
frame=   87 fps=0.5 q=14.0 size=    2304kB time=00:00:08.60 bitrate=2194.7kbits/s speed=0.05x    [441/1065] Processing /home/s25vargason1/richard/512_basic_training/stylegan2-ada-pytorch/results/00008-post-impressionist-auto1-ada-resumecustom/network-snapshot-004400.pkl...
frame=   88 fps=0.5 q=14.0 size=    2304kB time=00:00:08.70 bitrate=2169.5kbits/s speed=0.05x    [446/1065] Processing /home/s25vargason1/richard/512_basic_training/stylegan2-ada-pytorch/results/00008-post-impressionist-auto1-ada-resumecustom/network-snapshot-004450.pkl...
frame=   89 fps=0.5 q=14.0 size=    2304kB time=00:00:08.80 bitrate=2144.8kbits/s speed=0.0501x    [451/1065] Processing /home/s25vargason1/richard/512_basic_training/stylegan2-ada-pytorch/results/00008-post-impressionist-auto1-ada-resumecustom/network-snapshot-004500.pkl...
frame=   90 fps=0.5 q=14.0 size=    2304kB time=00:00:08.90 bitrate=2120.7kbits/s speed=0.0503x    [456/1065] Processing /home/s25vargason1/richard/512_basic_training/stylegan2-ada-pytorch/results/00008-post-impressionist-auto1-ada-resumecustom/network-snapshot-004550.pkl...
frame=   91 fps=0.5 q=14.0 size=    2304kB time=00:00:09.00 bitrate=2097.2kbits/s speed=0.0504x    [461/1065] Processing /home/s25vargason1/richard/512_basic_training/stylegan2-ada-pytorch/results/00008-post-impressionist-auto1-ada-resumecustom/network-snapshot-004600.pkl...
frame=   92 fps=0.5 q=14.0 size=    2304kB time=00:00:09.10 bitrate=2074.1kbits/s speed=0.0507x    [466/1065] Processing /home/s25vargason1/richard/512_basic_training/stylegan2-ada-pytorch/results/00008-post-impressionist-auto1-ada-resumecustom/network-snapshot-004650.pkl...
frame=   93 fps=0.5 q=14.0 size=    2304kB time=00:00:09.20 bitrate=2051.6kbits/s speed=0.0508x    [471/1065] Processing /home/s25vargason1/richard/512_basic_training/stylegan2-ada-pytorch/results/00008-post-impressionist-auto1-ada-resumecustom/network-snapshot-004700.pkl...
frame=   94 fps=0.5 q=14.0 size=    2304kB time=00:00:09.30 bitrate=2029.5kbits/s speed=0.051x    [476/1065] Processing /home/s25vargason1/richard/512_basic_training/stylegan2-ada-pytorch/results/00008-post-impressionist-auto1-ada-resumecustom/network-snapshot-004750.pkl...
frame=   95 fps=0.5 q=14.0 size=    2304kB time=00:00:09.40 bitrate=2007.9kbits/s speed=0.0512x    [481/1065] Processing /home/s25vargason1/richard/512_basic_training/stylegan2-ada-pytorch/results/00008-post-impressionist-auto1-ada-resumecustom/network-snapshot-004800.pkl...
frame=   96 fps=0.5 q=14.0 size=    4096kB time=00:00:09.50 bitrate=3532.0kbits/s speed=0.0514x    [486/1065] Processing /home/s25vargason1/richard/512_basic_training/stylegan2-ada-pytorch/results/00008-post-impressionist-auto1-ada-resumecustom/network-snapshot-004850.pkl...
frame=   97 fps=0.5 q=14.0 size=    4096kB time=00:00:09.60 bitrate=3495.3kbits/s speed=0.0516x    [491/1065] Processing /home/s25vargason1/richard/512_basic_training/stylegan2-ada-pytorch/results/00008-post-impressionist-auto1-ada-resumecustom/network-snapshot-004900.pkl...
frame=   98 fps=0.5 q=14.0 size=    4096kB time=00:00:09.70 bitrate=3459.2kbits/s speed=0.0497x    [496/1065] Processing /home/s25vargason1/richard/512_basic_training/stylegan2-ada-pytorch/results/00008-post-impressionist-auto1-ada-resumecustom/network-snapshot-004950.pkl...
frame=   99 fps=0.5 q=14.0 size=    4096kB time=00:00:09.80 bitrate=3423.9kbits/s speed=0.0498x    [501/1065] Processing /home/s25vargason1/richard/512_basic_training/stylegan2-ada-pytorch/results/00008-post-impressionist-auto1-ada-resumecustom/network-snapshot-005000.pkl...
frame=  100 fps=0.5 q=14.0 size=    4096kB time=00:00:09.90 bitrate=3389.3kbits/s speed=0.0498x    [506/1065] Processing /home/s25vargason1/richard/512_basic_training/stylegan2-ada-pytorch/results/00008-post-impressionist-auto1-ada-resumecustom/network-snapshot-005050.pkl...
frame=  101 fps=0.5 q=14.0 size=    4096kB time=00:00:10.00 bitrate=3355.4kbits/s speed=0.05x    [511/1065] Processing /home/s25vargason1/richard/512_basic_training/stylegan2-ada-pytorch/results/00008-post-impressionist-auto1-ada-resumecustom/network-snapshot-005100.pkl...
frame=  102 fps=0.5 q=14.0 size=    4096kB time=00:00:10.10 bitrate=3322.2kbits/s speed=0.05x    [516/1065] Processing /home/s25vargason1/richard/512_basic_training/stylegan2-ada-pytorch/results/00008-post-impressionist-auto1-ada-resumecustom/network-snapshot-005150.pkl...
frame=  103 fps=0.5 q=14.0 size=    4096kB time=00:00:10.20 bitrate=3289.7kbits/s speed=0.0502x    [521/1065] Processing /home/s25vargason1/richard/512_basic_training/stylegan2-ada-pytorch/results/00008-post-impressionist-auto1-ada-resumecustom/network-snapshot-005200.pkl...
frame=  104 fps=0.5 q=14.0 size=    4096kB time=00:00:10.30 bitrate=3257.7kbits/s speed=0.0504x    [526/1065] Processing /home/s25vargason1/richard/512_basic_training/stylegan2-ada-pytorch/results/00008-post-impressionist-auto1-ada-resumecustom/network-snapshot-005250.pkl...
frame=  105 fps=0.5 q=14.0 size=    4096kB time=00:00:10.40 bitrate=3226.4kbits/s speed=0.0486x    [531/1065] Processing /home/s25vargason1/richard/512_basic_training/stylegan2-ada-pytorch/results/00008-post-impressionist-auto1-ada-resumecustom/network-snapshot-005300.pkl...
frame=  106 fps=0.5 q=4.0 size=    4096kB time=00:00:10.50 bitrate=3195.7kbits/s speed=0.0488x    [536/1065] Processing /home/s25vargason1/richard/512_basic_training/stylegan2-ada-pytorch/results/00008-post-impressionist-auto1-ada-resumecustom/network-snapshot-005350.pkl...
frame=  107 fps=0.5 q=14.0 size=    4352kB time=00:00:10.60 bitrate=3363.4kbits/s speed=0.0488x    [541/1065] Processing /home/s25vargason1/richard/512_basic_training/stylegan2-ada-pytorch/results/00008-post-impressionist-auto1-ada-resumecustom/network-snapshot-005400.pkl...
frame=  108 fps=0.5 q=14.0 size=    4352kB time=00:00:10.70 bitrate=3331.9kbits/s speed=0.0489x    [546/1065] Processing /home/s25vargason1/richard/512_basic_training/stylegan2-ada-pytorch/results/00008-post-impressionist-auto1-ada-resumecustom/network-snapshot-005450.pkl...
frame=  109 fps=0.5 q=14.0 size=    4352kB time=00:00:10.80 bitrate=3301.1kbits/s speed=0.0491x    [551/1065] Processing /home/s25vargason1/richard/512_basic_training/stylegan2-ada-pytorch/results/00008-post-impressionist-auto1-ada-resumecustom/network-snapshot-005500.pkl...
frame=  110 fps=0.5 q=14.0 size=    4352kB time=00:00:10.90 bitrate=3270.8kbits/s speed=0.0492x    [556/1065] Processing /home/s25vargason1/richard/512_basic_training/stylegan2-ada-pytorch/results/00008-post-impressionist-auto1-ada-resumecustom/network-snapshot-005550.pkl...
frame=  111 fps=0.5 q=14.0 size=    4352kB time=00:00:11.00 bitrate=3241.1kbits/s speed=0.0494x    [561/1065] Processing /home/s25vargason1/richard/512_basic_training/stylegan2-ada-pytorch/results/00008-post-impressionist-auto1-ada-resumecustom/network-snapshot-005600.pkl...
frame=  112 fps=0.5 q=14.0 size=    4352kB time=00:00:11.10 bitrate=3211.9kbits/s speed=0.0485x    [566/1065] Processing /home/s25vargason1/richard/512_basic_training/stylegan2-ada-pytorch/results/00008-post-impressionist-auto1-ada-resumecustom/network-snapshot-005650.pkl...
frame=  113 fps=0.5 q=4.0 size=    4352kB time=00:00:11.20 bitrate=3183.2kbits/s speed=0.0486x    [571/1065] Processing /home/s25vargason1/richard/512_basic_training/stylegan2-ada-pytorch/results/00008-post-impressionist-auto1-ada-resumecustom/network-snapshot-005700.pkl...
frame=  114 fps=0.5 q=14.0 size=    4864kB time=00:00:11.30 bitrate=3526.2kbits/s speed=0.0486x    [576/1065] Processing /home/s25vargason1/richard/512_basic_training/stylegan2-ada-pytorch/results/00008-post-impressionist-auto1-ada-resumecustom/network-snapshot-005750.pkl...
frame=  115 fps=0.5 q=14.0 size=    4864kB time=00:00:11.40 bitrate=3495.3kbits/s speed=0.0488x    [581/1065] Processing /home/s25vargason1/richard/512_basic_training/stylegan2-ada-pytorch/results/00008-post-impressionist-auto1-ada-resumecustom/network-snapshot-005800.pkl...
frame=  116 fps=0.5 q=14.0 size=    4864kB time=00:00:11.50 bitrate=3464.9kbits/s speed=0.0489x    [586/1065] Processing /home/s25vargason1/richard/512_basic_training/stylegan2-ada-pytorch/results/00008-post-impressionist-auto1-ada-resumecustom/network-snapshot-005850.pkl...
frame=  117 fps=0.5 q=14.0 size=    4864kB time=00:00:11.60 bitrate=3435.0kbits/s speed=0.0491x    [591/1065] Processing /home/s25vargason1/richard/512_basic_training/stylegan2-ada-pytorch/results/00008-post-impressionist-auto1-ada-resumecustom/network-snapshot-005900.pkl...
frame=  118 fps=0.5 q=14.0 size=    4864kB time=00:00:11.70 bitrate=3405.6kbits/s speed=0.0493x    [596/1065] Processing /home/s25vargason1/richard/512_basic_training/stylegan2-ada-pytorch/results/00008-post-impressionist-auto1-ada-resumecustom/network-snapshot-005950.pkl...
frame=  119 fps=0.5 q=14.0 size=    4864kB time=00:00:11.80 bitrate=3376.8kbits/s speed=0.0495x    [601/1065] Processing /home/s25vargason1/richard/512_basic_training/stylegan2-ada-pytorch/results/00008-post-impressionist-auto1-ada-resumecustom/network-snapshot-006000.pkl...
frame=  120 fps=0.5 q=4.0 size=    4864kB time=00:00:11.90 bitrate=3348.4kbits/s speed=0.0497x    [606/1065] Processing /home/s25vargason1/richard/512_basic_training/stylegan2-ada-pytorch/results/00008-post-impressionist-auto1-ada-resumecustom/network-snapshot-006050.pkl...
frame=  121 fps=0.5 q=14.0 size=    5120kB time=00:00:12.00 bitrate=3495.3kbits/s speed=0.0499x    [611/1065] Processing /home/s25vargason1/richard/512_basic_training/stylegan2-ada-pytorch/results/00008-post-impressionist-auto1-ada-resumecustom/network-snapshot-006100.pkl...
frame=  122 fps=0.5 q=14.0 size=    5120kB time=00:00:12.10 bitrate=3466.4kbits/s speed=0.05x    [616/1065] Processing /home/s25vargason1/richard/512_basic_training/stylegan2-ada-pytorch/results/00008-post-impressionist-auto1-ada-resumecustom/network-snapshot-006150.pkl...
frame=  123 fps=0.5 q=14.0 size=    5120kB time=00:00:12.20 bitrate=3438.0kbits/s speed=0.0502x    [621/1065] Processing /home/s25vargason1/richard/512_basic_training/stylegan2-ada-pytorch/results/00008-post-impressionist-auto1-ada-resumecustom/network-snapshot-006200.pkl...
frame=  124 fps=0.5 q=14.0 size=    5120kB time=00:00:12.30 bitrate=3410.0kbits/s speed=0.0504x    [626/1065] Processing /home/s25vargason1/richard/512_basic_training/stylegan2-ada-pytorch/results/00008-post-impressionist-auto1-ada-resumecustom/network-snapshot-006250.pkl...
frame=  125 fps=0.5 q=14.0 size=    5120kB time=00:00:12.40 bitrate=3382.5kbits/s speed=0.049x    [631/1065] Processing /home/s25vargason1/richard/512_basic_training/stylegan2-ada-pytorch/results/00008-post-impressionist-auto1-ada-resumecustom/network-snapshot-006300.pkl...
frame=  126 fps=0.5 q=14.0 size=    5120kB time=00:00:12.50 bitrate=3355.4kbits/s speed=0.049x    [636/1065] Processing /home/s25vargason1/richard/512_basic_training/stylegan2-ada-pytorch/results/00008-post-impressionist-auto1-ada-resumecustom/network-snapshot-006350.pkl...
[641/1065] Processing /home/s25vargason1/richard/512_basic_training/stylegan2-ada-pytorch/results/00008-post-impressionist-auto1-ada-resumecustom/network-snapshot-006400.pkl...
frame=  127 fps=0.5 q=11.0 size=    5120kB time=00:00:12.60 bitrate=3328.8kbits/s speed=0.0492x    [646/1065] Processing /home/s25vargason1/richard/512_basic_training/stylegan2-ada-pytorch/results/00008-post-impressionist-auto1-ada-resumecustom/network-snapshot-006450.pkl...
frame=  128 fps=0.5 q=14.0 size=    5120kB time=00:00:12.70 bitrate=3302.6kbits/s speed=0.0492x    [651/1065] Processing /home/s25vargason1/richard/512_basic_training/stylegan2-ada-pytorch/results/00008-post-impressionist-auto1-ada-resumecustom/network-snapshot-006500.pkl...
frame=  129 fps=0.5 q=14.0 size=    5120kB time=00:00:12.80 bitrate=3276.8kbits/s speed=0.0495x    frame=  130 fps=0.5 q=14.0 size=    5120kB time=00:00:12.90 bitrate=3251.4kbits/s speed=0.0497x    [656/1065] Processing /home/s25vargason1/richard/512_basic_training/stylegan2-ada-pytorch/results/00008-post-impressionist-auto1-ada-resumecustom/network-snapshot-006550.pkl...
[661/1065] Processing /home/s25vargason1/richard/512_basic_training/stylegan2-ada-pytorch/results/00008-post-impressionist-auto1-ada-resumecustom/network-snapshot-006600.pkl...
frame=  132 fps=0.5 q=14.0 size=    5120kB time=00:00:13.10 bitrate=3201.8kbits/s speed=0.0502x    [666/1065] Processing /home/s25vargason1/richard/512_basic_training/stylegan2-ada-pytorch/results/00008-post-impressionist-auto1-ada-resumecustom/network-snapshot-006650.pkl...
frame=  133 fps=0.5 q=14.0 size=    5120kB time=00:00:13.20 bitrate=3177.5kbits/s speed=0.0504x    [671/1065] Processing /home/s25vargason1/richard/512_basic_training/stylegan2-ada-pytorch/results/00008-post-impressionist-auto1-ada-resumecustom/network-snapshot-006700.pkl...
frame=  134 fps=0.5 q=10.0 size=    5120kB time=00:00:13.30 bitrate=3153.6kbits/s speed=0.0505x    [676/1065] Processing /home/s25vargason1/richard/512_basic_training/stylegan2-ada-pytorch/results/00008-post-impressionist-auto1-ada-resumecustom/network-snapshot-006750.pkl...
frame=  135 fps=0.5 q=14.0 size=    5120kB time=00:00:13.40 bitrate=3130.1kbits/s speed=0.0507x    [681/1065] Processing /home/s25vargason1/richard/512_basic_training/stylegan2-ada-pytorch/results/00008-post-impressionist-auto1-ada-resumecustom/network-snapshot-006800.pkl...
frame=  136 fps=0.5 q=14.0 size=    5120kB time=00:00:13.50 bitrate=3106.9kbits/s speed=0.0509x    [686/1065] Processing /home/s25vargason1/richard/512_basic_training/stylegan2-ada-pytorch/results/00008-post-impressionist-auto1-ada-resumecustom/network-snapshot-006850.pkl...
frame=  137 fps=0.5 q=14.0 size=    5120kB time=00:00:13.60 bitrate=3084.0kbits/s speed=0.051x    [691/1065] Processing /home/s25vargason1/richard/512_basic_training/stylegan2-ada-pytorch/results/00008-post-impressionist-auto1-ada-resumecustom/network-snapshot-006900.pkl...
frame=  138 fps=0.5 q=14.0 size=    5120kB time=00:00:13.70 bitrate=3061.5kbits/s speed=0.0511x    [696/1065] Processing /home/s25vargason1/richard/512_basic_training/stylegan2-ada-pytorch/results/00008-post-impressionist-auto1-ada-resumecustom/network-snapshot-006950.pkl...
frame=  139 fps=0.5 q=14.0 size=    5120kB time=00:00:13.80 bitrate=3039.4kbits/s speed=0.0512x    [701/1065] Processing /home/s25vargason1/richard/512_basic_training/stylegan2-ada-pytorch/results/00008-post-impressionist-auto1-ada-resumecustom/network-snapshot-007000.pkl...
frame=  140 fps=0.5 q=14.0 size=    5120kB time=00:00:13.90 bitrate=3017.5kbits/s speed=0.0514x    [706/1065] Processing /home/s25vargason1/richard/512_basic_training/stylegan2-ada-pytorch/results/00008-post-impressionist-auto1-ada-resumecustom/network-snapshot-007050.pkl...
frame=  141 fps=0.5 q=4.0 size=    5120kB time=00:00:14.00 bitrate=2995.9kbits/s speed=0.0515x    [711/1065] Processing /home/s25vargason1/richard/512_basic_training/stylegan2-ada-pytorch/results/00008-post-impressionist-auto1-ada-resumecustom/network-snapshot-007100.pkl...
frame=  142 fps=0.5 q=14.0 size=    6144kB time=00:00:14.10 bitrate=3569.6kbits/s speed=0.0516x    [716/1065] Processing /home/s25vargason1/richard/512_basic_training/stylegan2-ada-pytorch/results/00008-post-impressionist-auto1-ada-resumecustom/network-snapshot-007150.pkl...
frame=  143 fps=0.5 q=14.0 size=    6144kB time=00:00:14.20 bitrate=3544.5kbits/s speed=0.0518x    [721/1065] Processing /home/s25vargason1/richard/512_basic_training/stylegan2-ada-pytorch/results/00008-post-impressionist-auto1-ada-resumecustom/network-snapshot-007200.pkl...
frame=  144 fps=0.5 q=14.0 size=    6144kB time=00:00:14.30 bitrate=3519.7kbits/s speed=0.0505x    [726/1065] Processing /home/s25vargason1/richard/512_basic_training/stylegan2-ada-pytorch/results/00008-post-impressionist-auto1-ada-resumecustom/network-snapshot-007250.pkl...
frame=  145 fps=0.5 q=14.0 size=    6144kB time=00:00:14.40 bitrate=3495.3kbits/s speed=0.0506x    [731/1065] Processing /home/s25vargason1/richard/512_basic_training/stylegan2-ada-pytorch/results/00008-post-impressionist-auto1-ada-resumecustom/network-snapshot-007300.pkl...
frame=  146 fps=0.5 q=14.0 size=    6144kB time=00:00:14.50 bitrate=3471.1kbits/s speed=0.0505x    [736/1065] Processing /home/s25vargason1/richard/512_basic_training/stylegan2-ada-pytorch/results/00008-post-impressionist-auto1-ada-resumecustom/network-snapshot-007350.pkl...
frame=  147 fps=0.5 q=14.0 size=    6144kB time=00:00:14.60 bitrate=3447.4kbits/s speed=0.0506x    [741/1065] Processing /home/s25vargason1/richard/512_basic_training/stylegan2-ada-pytorch/results/00008-post-impressionist-auto1-ada-resumecustom/network-snapshot-007400.pkl...
frame=  148 fps=0.5 q=4.0 size=    6144kB time=00:00:14.70 bitrate=3423.9kbits/s speed=0.0506x    [746/1065] Processing /home/s25vargason1/richard/512_basic_training/stylegan2-ada-pytorch/results/00008-post-impressionist-auto1-ada-resumecustom/network-snapshot-007450.pkl...
frame=  149 fps=0.5 q=14.0 size=    6656kB time=00:00:14.80 bitrate=3684.2kbits/s speed=0.0508x    [751/1065] Processing /home/s25vargason1/richard/512_basic_training/stylegan2-ada-pytorch/results/00008-post-impressionist-auto1-ada-resumecustom/network-snapshot-007500.pkl...
frame=  150 fps=0.5 q=14.0 size=    6656kB time=00:00:14.90 bitrate=3659.5kbits/s speed=0.051x    [756/1065] Processing /home/s25vargason1/richard/512_basic_training/stylegan2-ada-pytorch/results/00008-post-impressionist-auto1-ada-resumecustom/network-snapshot-007550.pkl...
frame=  151 fps=0.5 q=14.0 size=    6656kB time=00:00:15.00 bitrate=3635.1kbits/s speed=0.051x    [761/1065] Processing /home/s25vargason1/richard/512_basic_training/stylegan2-ada-pytorch/results/00008-post-impressionist-auto1-ada-resumecustom/network-snapshot-007600.pkl...
frame=  152 fps=0.5 q=14.0 size=    6656kB time=00:00:15.10 bitrate=3611.0kbits/s speed=0.0512x    [766/1065] Processing /home/s25vargason1/richard/512_basic_training/stylegan2-ada-pytorch/results/00008-post-impressionist-auto1-ada-resumecustom/network-snapshot-007650.pkl...
frame=  153 fps=0.5 q=14.0 size=    6656kB time=00:00:15.20 bitrate=3587.2kbits/s speed=0.0514x    [771/1065] Processing /home/s25vargason1/richard/512_basic_training/stylegan2-ada-pytorch/results/00008-post-impressionist-auto1-ada-resumecustom/network-snapshot-007700.pkl...
frame=  154 fps=0.5 q=14.0 size=    6656kB time=00:00:15.30 bitrate=3563.8kbits/s speed=0.0516x    [776/1065] Processing /home/s25vargason1/richard/512_basic_training/stylegan2-ada-pytorch/results/00008-post-impressionist-auto1-ada-resumecustom/network-snapshot-007750.pkl...
frame=  155 fps=0.5 q=9.0 size=    6656kB time=00:00:15.40 bitrate=3540.6kbits/s speed=0.0518x    [781/1065] Processing /home/s25vargason1/richard/512_basic_training/stylegan2-ada-pytorch/results/00008-post-impressionist-auto1-ada-resumecustom/network-snapshot-007800.pkl...
[786/1065] Processing /home/s25vargason1/richard/512_basic_training/stylegan2-ada-pytorch/results/00008-post-impressionist-auto1-ada-resumecustom/network-snapshot-007850.pkl...
frame=  156 fps=0.5 q=14.0 size=    6656kB time=00:00:15.50 bitrate=3517.8kbits/s speed=0.052x    frame=  157 fps=0.5 q=14.0 size=    6656kB time=00:00:15.60 bitrate=3495.3kbits/s speed=0.0522x    [791/1065] Processing /home/s25vargason1/richard/512_basic_training/stylegan2-ada-pytorch/results/00008-post-impressionist-auto1-ada-resumecustom/network-snapshot-007900.pkl...
[796/1065] Processing /home/s25vargason1/richard/512_basic_training/stylegan2-ada-pytorch/results/00008-post-impressionist-auto1-ada-resumecustom/network-snapshot-007950.pkl...
frame=  158 fps=0.5 q=14.0 size=    6656kB time=00:00:15.70 bitrate=3473.0kbits/s speed=0.0524x    [801/1065] Processing /home/s25vargason1/richard/512_basic_training/stylegan2-ada-pytorch/results/00008-post-impressionist-auto1-ada-resumecustom/network-snapshot-008000.pkl...
frame=  159 fps=0.5 q=14.0 size=    6656kB time=00:00:15.80 bitrate=3451.0kbits/s speed=0.0526x    frame=  160 fps=0.5 q=14.0 size=    6656kB time=00:00:15.90 bitrate=3429.3kbits/s speed=0.0529x    [806/1065] Processing /home/s25vargason1/richard/512_basic_training/stylegan2-ada-pytorch/results/00008-post-impressionist-auto1-ada-resumecustom/network-snapshot-008050.pkl...
[811/1065] Processing /home/s25vargason1/richard/512_basic_training/stylegan2-ada-pytorch/results/00008-post-impressionist-auto1-ada-resumecustom/network-snapshot-008100.pkl...
[816/1065] Processing /home/s25vargason1/richard/512_basic_training/stylegan2-ada-pytorch/results/00008-post-impressionist-auto1-ada-resumecustom/network-snapshot-008150.pkl...
frame=  162 fps=0.5 q=5.0 size=    6656kB time=00:00:16.10 bitrate=3386.7kbits/s speed=0.0532x    frame=  163 fps=0.5 q=14.0 size=    6656kB time=00:00:16.20 bitrate=3365.8kbits/s speed=0.0532x    [821/1065] Processing /home/s25vargason1/richard/512_basic_training/stylegan2-ada-pytorch/results/00008-post-impressionist-auto1-ada-resumecustom/network-snapshot-008200.pkl...
[826/1065] Processing /home/s25vargason1/richard/512_basic_training/stylegan2-ada-pytorch/results/00008-post-impressionist-auto1-ada-resumecustom/network-snapshot-008250.pkl...
frame=  165 fps=0.5 q=14.0 size=    6656kB time=00:00:16.40 bitrate=3324.8kbits/s speed=0.0527x    [831/1065] Processing /home/s25vargason1/richard/512_basic_training/stylegan2-ada-pytorch/results/00008-post-impressionist-auto1-ada-resumecustom/network-snapshot-008300.pkl...
frame=  166 fps=0.5 q=14.0 size=    6656kB time=00:00:16.50 bitrate=3304.6kbits/s speed=0.0529x    [836/1065] Processing /home/s25vargason1/richard/512_basic_training/stylegan2-ada-pytorch/results/00008-post-impressionist-auto1-ada-resumecustom/network-snapshot-008350.pkl...
frame=  167 fps=0.5 q=14.0 size=    6656kB time=00:00:16.60 bitrate=3284.7kbits/s speed=0.0529x    [841/1065] Processing /home/s25vargason1/richard/512_basic_training/stylegan2-ada-pytorch/results/00008-post-impressionist-auto1-ada-resumecustom/network-snapshot-008400.pkl...
frame=  168 fps=0.5 q=14.0 size=    6656kB time=00:00:16.70 bitrate=3265.0kbits/s speed=0.0531x    [846/1065] Processing /home/s25vargason1/richard/512_basic_training/stylegan2-ada-pytorch/results/00008-post-impressionist-auto1-ada-resumecustom/network-snapshot-008450.pkl...
frame=  169 fps=0.5 q=6.0 size=    6656kB time=00:00:16.80 bitrate=3245.6kbits/s speed=0.0532x    [851/1065] Processing /home/s25vargason1/richard/512_basic_training/stylegan2-ada-pytorch/results/00008-post-impressionist-auto1-ada-resumecustom/network-snapshot-008500.pkl...
frame=  170 fps=0.5 q=14.0 size=    6656kB time=00:00:16.90 bitrate=3226.4kbits/s speed=0.0524x    [856/1065] Processing /home/s25vargason1/richard/512_basic_training/stylegan2-ada-pytorch/results/00008-post-impressionist-auto1-ada-resumecustom/network-snapshot-008550.pkl...
frame=  171 fps=0.5 q=14.0 size=    6656kB time=00:00:17.00 bitrate=3207.4kbits/s speed=0.0525x    [861/1065] Processing /home/s25vargason1/richard/512_basic_training/stylegan2-ada-pytorch/results/00008-post-impressionist-auto1-ada-resumecustom/network-snapshot-008600.pkl...
frame=  172 fps=0.5 q=14.0 size=    6656kB time=00:00:17.10 bitrate=3188.7kbits/s speed=0.0526x    [866/1065] Processing /home/s25vargason1/richard/512_basic_training/stylegan2-ada-pytorch/results/00008-post-impressionist-auto1-ada-resumecustom/network-snapshot-008650.pkl...
frame=  173 fps=0.5 q=14.0 size=    6656kB time=00:00:17.20 bitrate=3170.1kbits/s speed=0.0523x    [871/1065] Processing /home/s25vargason1/richard/512_basic_training/stylegan2-ada-pytorch/results/00008-post-impressionist-auto1-ada-resumecustom/network-snapshot-008700.pkl...
frame=  174 fps=0.5 q=14.0 size=    6656kB time=00:00:17.30 bitrate=3151.8kbits/s speed=0.0519x    [876/1065] Processing /home/s25vargason1/richard/512_basic_training/stylegan2-ada-pytorch/results/00008-post-impressionist-auto1-ada-resumecustom/network-snapshot-008750.pkl...
frame=  175 fps=0.5 q=14.0 size=    6656kB time=00:00:17.40 bitrate=3133.7kbits/s speed=0.0519x    [881/1065] Processing /home/s25vargason1/richard/512_basic_training/stylegan2-ada-pytorch/results/00008-post-impressionist-auto1-ada-resumecustom/network-snapshot-008800.pkl...
frame=  176 fps=0.5 q=5.0 size=    6656kB time=00:00:17.50 bitrate=3115.8kbits/s speed=0.0519x    [886/1065] Processing /home/s25vargason1/richard/512_basic_training/stylegan2-ada-pytorch/results/00008-post-impressionist-auto1-ada-resumecustom/network-snapshot-008850.pkl...
frame=  177 fps=0.5 q=14.0 size=    7936kB time=00:00:17.60 bitrate=3693.8kbits/s speed=0.052x    [891/1065] Processing /home/s25vargason1/richard/512_basic_training/stylegan2-ada-pytorch/results/00008-post-impressionist-auto1-ada-resumecustom/network-snapshot-008900.pkl...
frame=  178 fps=0.5 q=14.0 size=    7936kB time=00:00:17.70 bitrate=3673.0kbits/s speed=0.052x    [896/1065] Processing /home/s25vargason1/richard/512_basic_training/stylegan2-ada-pytorch/results/00008-post-impressionist-auto1-ada-resumecustom/network-snapshot-008950.pkl...
frame=  179 fps=0.5 q=14.0 size=    7936kB time=00:00:17.80 bitrate=3652.3kbits/s speed=0.0521x    [901/1065] Processing /home/s25vargason1/richard/512_basic_training/stylegan2-ada-pytorch/results/00008-post-impressionist-auto1-ada-resumecustom/network-snapshot-009000.pkl...
frame=  180 fps=0.5 q=14.0 size=    7936kB time=00:00:17.90 bitrate=3631.9kbits/s speed=0.0522x    [906/1065] Processing /home/s25vargason1/richard/512_basic_training/stylegan2-ada-pytorch/results/00008-post-impressionist-auto1-ada-resumecustom/network-snapshot-009050.pkl...
frame=  181 fps=0.5 q=14.0 size=    7936kB time=00:00:18.00 bitrate=3611.8kbits/s speed=0.0523x    [911/1065] Processing /home/s25vargason1/richard/512_basic_training/stylegan2-ada-pytorch/results/00008-post-impressionist-auto1-ada-resumecustom/network-snapshot-009100.pkl...
frame=  182 fps=0.5 q=14.0 size=    7936kB time=00:00:18.10 bitrate=3591.8kbits/s speed=0.0525x    [916/1065] Processing /home/s25vargason1/richard/512_basic_training/stylegan2-ada-pytorch/results/00008-post-impressionist-auto1-ada-resumecustom/network-snapshot-009150.pkl...
frame=  183 fps=0.5 q=14.0 size=    8192kB time=00:00:18.20 bitrate=3687.3kbits/s speed=0.0516x    [921/1065] Processing /home/s25vargason1/richard/512_basic_training/stylegan2-ada-pytorch/results/00008-post-impressionist-auto1-ada-resumecustom/network-snapshot-009200.pkl...
frame=  184 fps=0.5 q=14.0 size=    8192kB time=00:00:18.30 bitrate=3667.2kbits/s speed=0.0516x    [926/1065] Processing /home/s25vargason1/richard/512_basic_training/stylegan2-ada-pytorch/results/00008-post-impressionist-auto1-ada-resumecustom/network-snapshot-009250.pkl...
frame=  185 fps=0.5 q=14.0 size=    8192kB time=00:00:18.40 bitrate=3647.2kbits/s speed=0.0517x    [931/1065] Processing /home/s25vargason1/richard/512_basic_training/stylegan2-ada-pytorch/results/00008-post-impressionist-auto1-ada-resumecustom/network-snapshot-009300.pkl...
frame=  186 fps=0.5 q=14.0 size=    8192kB time=00:00:18.50 bitrate=3627.5kbits/s speed=0.0517x    [936/1065] Processing /home/s25vargason1/richard/512_basic_training/stylegan2-ada-pytorch/results/00008-post-impressionist-auto1-ada-resumecustom/network-snapshot-009350.pkl...
frame=  187 fps=0.5 q=14.0 size=    8192kB time=00:00:18.60 bitrate=3608.0kbits/s speed=0.0513x    [941/1065] Processing /home/s25vargason1/richard/512_basic_training/stylegan2-ada-pytorch/results/00008-post-impressionist-auto1-ada-resumecustom/network-snapshot-009400.pkl...
frame=  188 fps=0.5 q=14.0 size=    8192kB time=00:00:18.70 bitrate=3588.7kbits/s speed=0.0513x    [946/1065] Processing /home/s25vargason1/richard/512_basic_training/stylegan2-ada-pytorch/results/00008-post-impressionist-auto1-ada-resumecustom/network-snapshot-009450.pkl...
frame=  189 fps=0.5 q=5.0 size=    8192kB time=00:00:18.80 bitrate=3569.6kbits/s speed=0.0514x    [951/1065] Processing /home/s25vargason1/richard/512_basic_training/stylegan2-ada-pytorch/results/00008-post-impressionist-auto1-ada-resumecustom/network-snapshot-009500.pkl...
frame=  190 fps=0.5 q=14.0 size=    8448kB time=00:00:18.90 bitrate=3661.7kbits/s speed=0.0512x    [956/1065] Processing /home/s25vargason1/richard/512_basic_training/stylegan2-ada-pytorch/results/00008-post-impressionist-auto1-ada-resumecustom/network-snapshot-009550.pkl...
frame=  191 fps=0.5 q=14.0 size=    8448kB time=00:00:19.00 bitrate=3642.4kbits/s speed=0.0509x    [961/1065] Processing /home/s25vargason1/richard/512_basic_training/stylegan2-ada-pytorch/results/00008-post-impressionist-auto1-ada-resumecustom/network-snapshot-009600.pkl...
frame=  192 fps=0.5 q=14.0 size=    8448kB time=00:00:19.10 bitrate=3623.4kbits/s speed=0.0509x    [966/1065] Processing /home/s25vargason1/richard/512_basic_training/stylegan2-ada-pytorch/results/00008-post-impressionist-auto1-ada-resumecustom/network-snapshot-009650.pkl...
frame=  193 fps=0.5 q=14.0 size=    8448kB time=00:00:19.20 bitrate=3604.5kbits/s speed=0.051x    [971/1065] Processing /home/s25vargason1/richard/512_basic_training/stylegan2-ada-pytorch/results/00008-post-impressionist-auto1-ada-resumecustom/network-snapshot-009700.pkl...
frame=  194 fps=0.5 q=14.0 size=    8448kB time=00:00:19.30 bitrate=3585.8kbits/s speed=0.0506x    [976/1065] Processing /home/s25vargason1/richard/512_basic_training/stylegan2-ada-pytorch/results/00008-post-impressionist-auto1-ada-resumecustom/network-snapshot-009750.pkl...
frame=  195 fps=0.5 q=14.0 size=    8448kB time=00:00:19.40 bitrate=3567.3kbits/s speed=0.0507x    [981/1065] Processing /home/s25vargason1/richard/512_basic_training/stylegan2-ada-pytorch/results/00008-post-impressionist-auto1-ada-resumecustom/network-snapshot-009800.pkl...
frame=  196 fps=0.5 q=5.0 size=    8448kB time=00:00:19.50 bitrate=3549.0kbits/s speed=0.0508x    [986/1065] Processing /home/s25vargason1/richard/512_basic_training/stylegan2-ada-pytorch/results/00008-post-impressionist-auto1-ada-resumecustom/network-snapshot-009850.pkl...
frame=  197 fps=0.5 q=14.0 size=    8960kB time=00:00:19.60 bitrate=3744.9kbits/s speed=0.0508x    [991/1065] Processing /home/s25vargason1/richard/512_basic_training/stylegan2-ada-pytorch/results/00008-post-impressionist-auto1-ada-resumecustom/network-snapshot-009900.pkl...
frame=  198 fps=0.5 q=14.0 size=    8960kB time=00:00:19.70 bitrate=3725.9kbits/s speed=0.051x    [996/1065] Processing /home/s25vargason1/richard/512_basic_training/stylegan2-ada-pytorch/results/00008-post-impressionist-auto1-ada-resumecustom/network-snapshot-009950.pkl...
frame=  199 fps=0.5 q=14.0 size=    8960kB time=00:00:19.80 bitrate=3707.1kbits/s speed=0.0511x    [1001/1065] Processing /home/s25vargason1/richard/512_basic_training/stylegan2-ada-pytorch/results/00008-post-impressionist-auto1-ada-resumecustom/network-snapshot-010000.pkl...
frame=  200 fps=0.5 q=14.0 size=    8960kB time=00:00:19.90 bitrate=3688.5kbits/s speed=0.0512x    [1006/1065] Processing /home/s25vargason1/richard/512_basic_training/stylegan2-ada-pytorch/results/00008-post-impressionist-auto1-ada-resumecustom/network-snapshot-010050.pkl...
frame=  201 fps=0.5 q=14.0 size=    8960kB time=00:00:20.00 bitrate=3670.0kbits/s speed=0.0514x    [1011/1065] Processing /home/s25vargason1/richard/512_basic_training/stylegan2-ada-pytorch/results/00008-post-impressionist-auto1-ada-resumecustom/network-snapshot-010100.pkl...
frame=  202 fps=0.5 q=14.0 size=    8960kB time=00:00:20.10 bitrate=3651.8kbits/s speed=0.0515x    [1016/1065] Processing /home/s25vargason1/richard/512_basic_training/stylegan2-ada-pytorch/results/00008-post-impressionist-auto1-ada-resumecustom/network-snapshot-010150.pkl...
frame=  203 fps=0.5 q=9.0 size=    8960kB time=00:00:20.20 bitrate=3633.7kbits/s speed=0.0516x    [1021/1065] Processing /home/s25vargason1/richard/512_basic_training/stylegan2-ada-pytorch/results/00008-post-impressionist-auto1-ada-resumecustom/network-snapshot-010200.pkl...
frame=  204 fps=0.5 q=14.0 size=    8960kB time=00:00:20.30 bitrate=3615.8kbits/s speed=0.0516x    [1026/1065] Processing /home/s25vargason1/richard/512_basic_training/stylegan2-ada-pytorch/results/00008-post-impressionist-auto1-ada-resumecustom/network-snapshot-010250.pkl...
frame=  205 fps=0.5 q=14.0 size=    8960kB time=00:00:20.40 bitrate=3598.1kbits/s speed=0.0518x    [1031/1065] Processing /home/s25vargason1/richard/512_basic_training/stylegan2-ada-pytorch/results/00008-post-impressionist-auto1-ada-resumecustom/network-snapshot-010300.pkl...
frame=  206 fps=0.5 q=14.0 size=    8960kB time=00:00:20.50 bitrate=3580.5kbits/s speed=0.0519x    [1036/1065] Processing /home/s25vargason1/richard/512_basic_training/stylegan2-ada-pytorch/results/00008-post-impressionist-auto1-ada-resumecustom/network-snapshot-010350.pkl...
frame=  207 fps=0.5 q=14.0 size=    8960kB time=00:00:20.60 bitrate=3563.1kbits/s speed=0.052x    [1041/1065] Processing /home/s25vargason1/richard/512_basic_training/stylegan2-ada-pytorch/results/00008-post-impressionist-auto1-ada-resumecustom/network-snapshot-010400.pkl...
frame=  208 fps=0.5 q=14.0 size=    8960kB time=00:00:20.70 bitrate=3545.9kbits/s speed=0.0521x    [1046/1065] Processing /home/s25vargason1/richard/512_basic_training/stylegan2-ada-pytorch/results/00008-post-impressionist-auto1-ada-resumecustom/network-snapshot-010450.pkl...
frame=  209 fps=0.5 q=14.0 size=    8960kB time=00:00:20.80 bitrate=3528.9kbits/s speed=0.0523x    [1051/1065] Processing /home/s25vargason1/richard/512_basic_training/stylegan2-ada-pytorch/results/00008-post-impressionist-auto1-ada-resumecustom/network-snapshot-010500.pkl...
frame=  210 fps=0.5 q=9.0 size=    8960kB time=00:00:20.90 bitrate=3512.0kbits/s speed=0.0516x    [1056/1065] Processing /home/s25vargason1/richard/512_basic_training/stylegan2-ada-pytorch/results/00008-post-impressionist-auto1-ada-resumecustom/network-snapshot-010550.pkl...
frame=  211 fps=0.5 q=14.0 size=    8960kB time=00:00:21.00 bitrate=3495.3kbits/s speed=0.0516x    [1061/1065] Processing /home/s25vargason1/richard/512_basic_training/stylegan2-ada-pytorch/results/00008-post-impressionist-auto1-ada-resumecustom/network-snapshot-010600.pkl...
frame=  212 fps=0.5 q=14.0 size=    8960kB time=00:00:21.10 bitrate=3478.7kbits/s speed=0.0517x    frame=  213 fps=0.5 q=14.0 size=    8960kB time=00:00:21.20 bitrate=3462.3kbits/s speed=0.0516x    frame=  213 fps=0.5 q=14.0 size=    8960kB time=00:00:21.20 bitrate=3462.3kbits/s speed=0.0515x    [out#0/webm @ 0x145ed80] video:9898kB audio:0kB subtitle:0kB other streams:0kB global headers:0kB muxing overhead: 0.025169%
frame=  213 fps=0.5 q=14.0 Lsize=    9901kB time=00:00:21.20 bitrate=3825.7kbits/s speed=0.0515x    
 Done! Video created: training_interpolation.webm
